<svg width="20" height="20" viewBox="0 0 20 20" xmlns="http://www.w3.org/2000/svg"><path d="M8.944 18.125c0 1.036-.858 1.875-1.916 1.875-1.059 0-1.917-.84-1.917-1.875 0-1.036.858-1.875 1.917-1.875 1.058 0 1.916.84 1.916 1.875zm6.39 0c0-1.036-.859-1.875-1.917-1.875-1.059 0-1.917.84-1.917 1.875 0 1.036.858 1.875 1.917 1.875 1.058 0 1.916-.84 1.916-1.875zM0 1.25C0 .56.572 0 1.278 0h1.916c.5 0 .952.285 1.16.728L5.188 2.5h12.7c.453 0 .87.234 1.1.615.23.38.237.851.019 1.238l-3.195 5.625a1.282 1.282 0 0 1-1.118.647H6.708a.948.948 0 0 0-.958.938c0 .517.43.937.958.937h9.264c.706 0 1.278.56 1.278 1.25S16.678 15 15.972 15H6.708c-1.636-.004-3.053-1.112-3.418-2.673-.364-1.56.422-3.16 1.895-3.858L2.377 2.5h-1.1C.573 2.5 0 1.94 0 1.25zM6.363 5l1.47 3.125h6.11L15.718 5H6.363z" fill="none"/></svg>