<svg width="16" height="16" viewBox="0 0 16 16" xmlns="http://www.w3.org/2000/svg"><title>check</title><path d="M12.257 0H3.743A3.745 3.745 0 0 0 0 3.743v8.514A3.745 3.745 0 0 0 3.743 16h8.514A3.745 3.745 0 0 0 16 12.257V3.743A3.756 3.756 0 0 0 12.257 0zm-.067 7.132l-4.131 4.13c-.253.253-.59.388-.927.388a1.29 1.29 0 0 1-.928-.388L3.827 8.885a1.313 1.313 0 0 1 0-1.871 1.313 1.313 0 0 1 1.872 0l1.45 1.45 3.203-3.204a1.313 1.313 0 0 1 1.871 0c.472.523.472 1.366-.033 1.872z" fill="#007BFF" fill-rule="evenodd"/></svg>