<svg width="16" height="16" viewBox="0 0 16 16" xmlns="http://www.w3.org/2000/svg"><path d="M9.873 8.019l4.73-4.71A1.39 1.39 0 0 0 15 2.324c0-.34-.151-.662-.397-.889a1.344 1.344 0 0 0-.965-.397c-.34 0-.662.151-.89.397l-4.73 4.71-4.767-4.748A1.377 1.377 0 0 0 2.286 1c-.34 0-.662.151-.889.397A1.388 1.388 0 0 0 1 2.381c0 .34.151.662.397.89l4.73 4.71-4.73 4.749a1.388 1.388 0 0 0-.397.984c0 .34.151.662.397.889.246.246.606.397.927.397.36 0 .662-.132.927-.397L8.02 9.892l4.73 4.71c.246.247.605.398.927.398.36 0 .662-.132.927-.397s.397-.625.397-.984c0-.34-.151-.662-.397-.89l-4.73-4.71z" fill="none"/></svg>