<svg width="17" height="22" viewBox="0 0 17 22" xmlns="http://www.w3.org/2000/svg"><path d="M6.934 17.903h.008a.432.432 0 0 0 .42-.443L7.148 5.768a.428.428 0 1 0-.857.017l.214 11.691a.432.432 0 0 0 .429.427zm3.134 0c.232 0 .424-.19.428-.427l.214-11.692a.432.432 0 0 0-.42-.442h-.009a.432.432 0 0 0-.428.426L9.639 17.46a.432.432 0 0 0 .42.443h.009zm4.21-12.561a.428.428 0 0 0-.443.42l-.429 13.523a.772.772 0 0 1-.764.777H4.36a.776.776 0 0 1-.766-.791L3.166 5.762a.43.43 0 0 0-.442-.42.432.432 0 0 0-.415.448l.428 13.494c0 .908.728 1.647 1.623 1.647h8.282c.894 0 1.621-.739 1.621-1.633l.429-13.508a.432.432 0 0 0-.415-.448zm1.083-2.174H11.91l-.358-1.753a.43.43 0 0 0-.42-.346H5.87a.43.43 0 0 0-.42.346l-.357 1.753H1.639a.432.432 0 0 0-.429.435c0 .24.192.434.429.434h13.723a.432.432 0 0 0 .428-.434.432.432 0 0 0-.429-.435zm-9.394 0l.252-1.23h4.565l.25 1.23H5.968z" fill="none"/></svg>