<svg width="133" height="33" viewBox="0 0 133 33" xmlns="http://www.w3.org/2000/svg"><g fill="none" fill-rule="evenodd"><path d="M-14-4h256v40H-14z"/><g stroke="#00C25D" fill="#00C25D"><path d="M11.465 31c-2.41 0-4.372-1.952-4.372-4.35 0-2.398 1.961-4.35 4.372-4.35 2.41 0 4.373 1.952 4.373 4.35 0 2.398-1.962 4.35-4.373 4.35zm0-7.25a2.91 2.91 0 0 0-2.915 2.9c0 1.6 1.307 2.9 2.915 2.9a2.91 2.91 0 0 0 2.915-2.9c0-1.6-1.307-2.9-2.915-2.9zM33.255 31c-2.41 0-4.372-1.952-4.372-4.35 0-2.398 1.961-4.35 4.372-4.35 2.41 0 4.373 1.952 4.373 4.35 0 2.398-1.962 4.35-4.373 4.35zm0-7.25a2.91 2.91 0 0 0-2.915 2.9c0 1.6 1.307 2.9 2.915 2.9a2.91 2.91 0 0 0 2.915-2.9c0-1.6-1.307-2.9-2.915-2.9z"/><path d="M40.18 26.65h-2.76V25.2h2.76c.983 0 1.78-.65 1.78-1.45v-5.092c0-.369-.092-.725-.276-1.06l-2.128-3.896c-.513-.943-1.663-1.552-2.931-1.552h-7.13V10.7h7.13c1.97 0 3.76.947 4.56 2.413l2.127 3.896c.285.522.43 1.077.43 1.65v5.091c0 1.6-1.598 2.9-3.563 2.9zm-11.576 0H16.138V25.2h11.575V4.894c0-.796-.796-1.444-1.773-1.444H4.555c-.978 0-1.774.648-1.774 1.444V25.2h4.568v1.45H1.89L1 25.925V4.895C1 3.298 2.596 2 4.555 2H25.94c1.959 0 3.554 1.3 3.554 2.894v21.031l-.89.725z"/></g><text font-family="OpenSans" font-size="9" font-weight="bold" letter-spacing="-.075" fill="#00C25D"><tspan x="5.169" y="17">FREE</tspan></text><text class="transparent-text" font-family="OpenSans" font-size="14" font-weight="bold" letter-spacing="-.117"><tspan x="50.19" y="11">Бесплатная</tspan> <tspan x="56.988" y="30"> доставка</tspan></text></g></svg>