<svg width="15" height="22" viewBox="0 0 15 22" xmlns="http://www.w3.org/2000/svg"><title>download</title><path d="M7.304 1a.822.822 0 0 0-.822.822v12.36L3.21 11.098c-.305-.326-.895-.335-1.2-.008-.308.332-.198.902.07 1.199l4.659 4.385a.92.92 0 0 0 .565.223.793.793 0 0 0 .565-.223l4.66-4.385c.278-.285.376-.875.068-1.2-.307-.323-.918-.271-1.199.01l-3.272 3.083V1.822A.822.822 0 0 0 7.304 1zM1.822 18.993a.822.822 0 1 0 0 1.645h10.964a.822.822 0 0 0 0-1.645H1.822z" stroke="#DCDCDC" fill="#DCDCDC" fill-rule="evenodd"/></svg>