<svg width="22" height="15" viewBox="0 0 22 15" xmlns="http://www.w3.org/2000/svg"><title>Shape</title><path d="M18.794 1.163H3.206c-1.128 0-2.045.905-2.045 2.018v8.639c0 1.112.917 2.017 2.045 2.017h15.588c1.128 0 2.045-.905 2.045-2.017V3.18c0-1.112-.917-2.017-2.045-2.017zm-4.176 5.903l5.249-4.239c.038.112.063.23.063.353v8.64c0 .108-.02.21-.05.31l-5.262-5.064zm4.176-5.006c.165 0 .322.037.464.1L11 8.83 2.742 2.16c.142-.063.298-.1.464-.1h15.588zM2.12 12.13a1.09 1.09 0 0 1-.05-.31V3.18c0-.124.025-.24.063-.352l5.25 4.238L2.12 12.13zm1.086.81c-.18 0-.35-.046-.501-.12L8.09 7.638 11 9.988l2.91-2.35 5.385 5.182c-.152.075-.32.12-.501.12H3.206z" stroke="#97A6C0" fill="#97A6C0" fill-rule="evenodd"/></svg>