<svg width="15" height="22" viewBox="0 0 15 22" xmlns="http://www.w3.org/2000/svg"><g stroke="#97A6C0" fill="#97A6C0" fill-rule="evenodd"><path d="M12.355 8.688V6.124c0-2.77-2.174-5.02-4.855-5.02-2.681 0-4.855 2.25-4.855 5.02v2.563a2.363 2.363 0 0 0-1.625 2.25v7.583c0 1.312 1.036 2.375 2.316 2.375h8.328c1.28 0 2.316-1.063 2.316-2.375v-7.584c0-1.062-.67-1.958-1.625-2.25zM7.5 2.52c1.91 0 3.473 1.604 3.473 3.604v2.438H4.027V6.124c0-1.98 1.564-3.604 3.473-3.604zm5.078 16c0 .52-.406.958-.934.958H3.316a.944.944 0 0 1-.935-.958v-7.584c0-.52.407-.958.935-.958h8.328c.508 0 .934.417.934.959v7.583z"/><path d="M7.5 14.73a.694.694 0 0 0-.69.707v1.417c0 .396.304.709.69.709.386 0 .69-.313.69-.709v-1.416a.694.694 0 0 0-.69-.709z"/></g></svg>