<svg width="22" height="22" viewBox="0 0 22 22" xmlns="http://www.w3.org/2000/svg"><title>pencil copy</title><path d="M20.64 4.58l-2.984-2.935c-.46-.451-1.279-.451-1.738 0L2.049 15.323a.732.732 0 0 0-.197.387l-.524 4.225a.613.613 0 0 0 .197.549.653.653 0 0 0 .459.193h.065l4.295-.516a.9.9 0 0 0 .394-.193L20.639 6.29c.23-.225.361-.516.361-.838 0-.323-.131-.646-.36-.871zM5.983 18.904l-3.246.387.393-3.193L14.934 4.484l2.853 2.806L5.984 18.903zm12.72-12.548l-2.85-2.776.951-.936 2.853 2.807-.951.903z" stroke="#DCDCDC" fill="#DCDCDC" fill-rule="evenodd"/></svg>