<svg width="14" height="22" viewBox="0 0 14 22" xmlns="http://www.w3.org/2000/svg"><g stroke="#97A6C0" fill="#97A6C0" fill-rule="evenodd"><path d="M10.409.773H3.591A2.845 2.845 0 0 0 .75 3.614v14.773a2.845 2.845 0 0 0 2.841 2.841h6.818a2.845 2.845 0 0 0 2.841-2.841V3.614A2.844 2.844 0 0 0 10.409.773zm1.705 17.613c0 .94-.765 1.705-1.705 1.705H3.591c-.94 0-1.705-.765-1.705-1.705V3.614c0-.94.765-1.705 1.705-1.705h6.818c.94 0 1.705.765 1.705 1.705v14.772z"/><circle cx="7" cy="17.386" r="1.136"/><path d="M8.136 3.477H5.863a.568.568 0 1 0 0 1.136h2.273a.568.568 0 1 0 0-1.136z"/></g></svg>