<svg width="19" height="20" viewBox="0 0 19 20" xmlns="http://www.w3.org/2000/svg"><title>reserved copy 2</title><path d="M8.75 18.125a1.875 1.875 0 1 1-3.75 0 1.875 1.875 0 0 1 3.75 0zm4.375-1.875a1.875 1.875 0 1 0 0 3.75 1.875 1.875 0 0 0 0-3.75zm4.981-13.594a1.25 1.25 0 0 0-1.7.485l-2.772 4.984H7.11L4.297.8A1.25 1.25 0 0 0 3.125 0H1.25a1.25 1.25 0 1 0 0 2.5h1.016l2.812 7.325a1.25 1.25 0 0 0 1.172.8h7.187a.937.937 0 0 1 0 1.875H4.375a1.25 1.25 0 0 0 0 2.5h9.062a3.437 3.437 0 0 0 2.475-5.819l2.682-4.825a1.25 1.25 0 0 0-.488-1.7zM11.25 0H10a.625.625 0 0 0-.625.625v2.5h-.969a.425.425 0 0 0-.312.697l2.187 2.606a.484.484 0 0 0 .744 0l2.187-2.606a.425.425 0 0 0-.312-.697h-1.025v-2.5A.625.625 0 0 0 11.25 0z" fill="#DCDCDC" fill-rule="evenodd"/></svg>