<svg width="22" height="22" viewBox="0 0 22 22" xmlns="http://www.w3.org/2000/svg"><path d="M14.118 3.385a7.634 7.634 0 0 0-5.434-2.25 7.632 7.632 0 0 0-5.433 2.25A7.635 7.635 0 0 0 1 8.819c0 2.052.8 3.982 2.25 5.433a7.635 7.635 0 0 0 5.434 2.25 7.634 7.634 0 0 0 5.434-2.25c2.996-2.996 2.995-7.871 0-10.867zm-1.383 9.484a5.694 5.694 0 0 1-4.05 1.678 5.69 5.69 0 0 1-4.051-1.678 5.695 5.695 0 0 1-1.678-4.05 5.69 5.69 0 0 1 1.678-4.05 5.69 5.69 0 0 1 4.05-1.678 5.69 5.69 0 0 1 4.05 1.677 5.736 5.736 0 0 1 0 8.101zm7.71 6.327l-4.103-4.102a.978.978 0 1 0-1.383 1.383l4.103 4.102a.975.975 0 0 0 1.383 0 .978.978 0 0 0 0-1.383z" fill="none"/></svg>