<svg width="21" height="22" viewBox="0 0 21 22" xmlns="http://www.w3.org/2000/svg"><g fill="none" fill-rule="evenodd"><path d="M15.383 11.192a6.945 6.945 0 0 1-1.33 1.154c2.565.077 4.617 2.212 4.617 4.827v2.365H2.33v-2.365c0-2.615 2.052-4.75 4.617-4.827a6.415 6.415 0 0 1-1.33-1.154C2.957 11.865 1 14.288 1 17.173v3.039c0 .365.304.673.665.673h17.67a.677.677 0 0 0 .665-.673v-3.039c0-2.885-1.957-5.308-4.617-5.98z"/><path d="M10.5 12.442c-3.078 0-5.605-2.538-5.605-5.673 0-3.134 2.527-5.654 5.605-5.654 3.078 0 5.605 2.539 5.605 5.673 0 3.135-2.527 5.654-5.605 5.654zm0-9.98c-2.356 0-4.275 1.942-4.275 4.326 0 2.385 1.919 4.308 4.275 4.308 2.356 0 4.275-1.942 4.275-4.327 0-2.384-1.919-4.307-4.275-4.307z"/></g></svg>