<svg width="17" height="18" viewBox="0 0 17 18" xmlns="http://www.w3.org/2000/svg"><g stroke="#98A5C1" fill="#97A6C0" fill-rule="evenodd"><path d="M12.355 9.047c-.315.349-.66.652-1.05.91 2.025.061 3.645 1.746 3.645 3.811v1.868H2.05v-1.868c0-2.065 1.62-3.75 3.645-3.81a5.064 5.064 0 0 1-1.05-.911A4.857 4.857 0 0 0 1 13.768v2.399c0 .288.24.531.525.531h13.95a.535.535 0 0 0 .525-.531v-2.399a4.857 4.857 0 0 0-3.645-4.721z"/><path d="M8.5 10.033c-2.43 0-4.425-2.004-4.425-4.478C4.075 3.08 6.07 1.09 8.5 1.09c2.43 0 4.425 2.004 4.425 4.479S10.93 10.033 8.5 10.033zm0-7.88c-1.86 0-3.375 1.534-3.375 3.417 0 1.882 1.515 3.4 3.375 3.4s3.375-1.533 3.375-3.415c0-1.883-1.515-3.401-3.375-3.401z"/></g></svg>