<svg width="105" height="30" viewBox="0 0 105 30" xmlns="http://www.w3.org/2000/svg"><g fill="none" fill-rule="evenodd"><path d="M0 0h5.616l4.186 12.222L13.85 0h5.477v17.813h-3.698V5.139l-4.395 12.674H8.198L3.733 5.277v12.535H0zm30.733 17.743c-1.047 2.847-1.675 5.347-4.954 5.347-1.116 0-.663 0-2.372-.034v-2.917h1.744c1.186 0 1.814-1.354 1.814-2.43a1.22 1.22 0 0 0-.105-.487L22.151 4.896h3.837l2.965 8.785 2.861-8.785h3.698l-4.78 12.847zm23.755.07v-7.709c0-1.423-.209-2.639-2.058-2.639-1.849 0-2.477 1.354-2.477 3.09v7.258h-3.558V9.965c0-1.389-.279-2.534-1.953-2.534-2.058 0-2.582 1.631-2.582 3.368v7.014h-3.558V4.896h3.384v1.77c1.012-1.388 2.302-2.117 4.116-2.117 1.71 0 3 .694 3.663 2.118 1.047-1.39 2.407-2.118 4.256-2.118 2.93 0 4.43 1.84 4.43 4.583v8.68h-3.663zM65.86 2.986h-3.558V0h3.558v2.986zm0 14.826h-3.558V4.896h3.558v12.916zm7.71.001h-3.558V0h3.558zm10.15.347c-3.976 0-6.627-2.709-6.627-6.736 0-3.993 2.721-6.91 6.488-6.91C87.488 4.514 90 7.36 90 11.875v.347h-9.28c.036 2.222 1.117 3.438 3.036 3.438 1.29 0 2.093-.59 2.651-1.875h3.419c-.838 2.812-3.14 4.375-6.105 4.375zm-.104-11.077c-1.57 0-2.686 1.111-2.895 2.917h5.686c-.174-1.563-1.012-2.917-2.79-2.917zm17.337 1.563c-.209-1.354-1.046-1.771-2.476-1.771-1.256 0-2.024.486-2.024 1.285 0 1.076 1.117 1.215 3.175 1.666 2.337.486 5.058 1.077 5.058 3.993 0 2.709-2.233 4.375-5.93 4.375-3.244 0-6.035-1.284-6.07-4.583h3.384c.14 1.563 1.116 2.153 2.756 2.153 1.465 0 2.372-.625 2.372-1.597 0-1.111-1.047-1.285-2.93-1.736-2.303-.521-5.338-.868-5.338-3.959 0-2.534 2.058-3.958 5.686-3.958 2.965 0 5.512 1.111 5.617 4.132h-3.28z" class="mymiles_logo"/><text class="mymiles_text" font-family="OpenSans" font-size="10" font-weight="bold" letter-spacing="-.083"><tspan x="31" y="27">дропшиппинг</tspan></text></g></svg>