<svg width="24" height="26" viewBox="0 0 24 26" xmlns="http://www.w3.org/2000/svg"><path class="fill-stroke" d="M10.038 3.156H2.851a.694.694 0 0 0-.695.695v7.187c0 .384.311.695.695.695h7.187a.695.695 0 0 0 .695-.695V3.851a.695.695 0 0 0-.695-.695zm-.694 7.188H3.545V4.545h5.799v5.799zm11.805-7.188h-7.187a.694.694 0 0 0-.694.695v7.187c0 .384.31.695.694.695h7.187a.695.695 0 0 0 .695-.695V3.851a.695.695 0 0 0-.695-.695zm-.694 7.188h-5.799V4.545h5.799v5.799zm-10.417 3.924H2.851a.694.694 0 0 0-.695.694v7.187c0 .384.311.695.695.695h7.187c.384 0 .695-.31.695-.695v-7.187a.695.695 0 0 0-.695-.694zm-.694 7.187H3.545v-5.799h5.799v5.799zm11.805-7.187h-7.187a.694.694 0 0 0-.694.694v7.187c0 .384.31.695.694.695h7.187c.384 0 .695-.31.695-.695v-7.187a.695.695 0 0 0-.695-.694zm-.694 7.187h-5.799v-5.799h5.799v5.799z" fill="none"/></svg>