<?xml version="1.0" encoding="UTF-8"?>
<svg width="24px" height="27px" viewBox="0 0 24 27" version="1.1" xmlns="http://www.w3.org/2000/svg" xmlns:xlink="http://www.w3.org/1999/xlink">
    <!-- Generator: Sketch 50.2 (55047) - http://www.bohemiancoding.com/sketch -->
    <title>Untitled</title>
    <desc>Created with Sketch.</desc>
    <defs></defs>
    <g id="Page-1" stroke="none" stroke-width="1" fill="none" fill-rule="evenodd">
        <g id="download" fill="#97A6C0" fill-rule="nonzero">
            <path d="M18.328,11.851125 C18.1984,11.56025 17.9136,11.375 17.6,11.375 L14.4,11.375 L14.4,0.8125 C14.4,0.364 14.0416,0 13.6,0 L10.4,0 C9.9584,0 9.6,0.364 9.6,0.8125 L9.6,11.375 L6.4,11.375 C6.0864,11.375 5.8016,11.561875 5.672,11.851125 C5.5408,12.142 5.592,12.481625 5.7984,12.722125 L11.3984,19.222125 C11.5504,19.39925 11.7696,19.5 12,19.5 C12.2304,19.5 12.4496,19.397625 12.6016,19.222125 L18.2016,12.722125 C18.4096,12.48325 18.4576,12.142 18.328,11.851125 Z" id="Shape"></path>
            <path d="M20.8,17.875 L20.8,22.75 L3.2,22.75 L3.2,17.875 L0,17.875 L0,24.375 C0,25.273625 0.7168,26 1.6,26 L22.4,26 C23.2848,26 24,25.273625 24,24.375 L24,17.875 L20.8,17.875 Z" id="Shape"></path>
        </g>
    </g>
</svg>