<svg width="24" height="26" viewBox="0 0 24 26" xmlns="http://www.w3.org/2000/svg"><g fill="none" fill-rule="evenodd"><path class="stroke" d="M16.829 4.382c-1.72 0-3.304.789-4.347 2.164L12 7.18l-.482-.634a5.417 5.417 0 0 0-4.347-2.164c-3.01 0-5.46 2.458-5.46 5.479 0 5.227 8.618 10.592 10.301 11.59 1.692-.925 10.277-5.899 10.277-11.59 0-3.021-2.45-5.479-5.46-5.479z"/><path class="fill-stroke" d="M16.829 3.167A6.604 6.604 0 0 0 12 5.242a6.604 6.604 0 0 0-4.829-2.075C3.493 3.167.5 6.17.5 9.861c0 6.474 10.748 12.558 11.205 12.814l.282.158.287-.147c.458-.233 11.226-5.8 11.226-12.825 0-3.69-2.993-6.694-6.671-6.694zM12.013 21.45C10.329 20.452 1.71 15.087 1.71 9.86c0-3.02 2.45-5.478 5.46-5.478 1.72 0 3.304.788 4.348 2.163L12 7.18l.482-.634a5.416 5.416 0 0 1 4.347-2.164c3.01 0 5.46 2.458 5.46 5.479 0 5.69-8.585 10.665-10.276 11.589z"/></g></svg>