<svg width="24" height="26" viewBox="0 0 24 26" xmlns="http://www.w3.org/2000/svg"><g transform="translate(2 3)" fill="none" fill-rule="evenodd"><path class="fill" d="M6.109 17.37c0 1.104.91 2 2.033 2h10.164c1.123 0 2.033-.896 2.033-2 0-1.106-.91-2.001-2.033-2.001H8.142c-1.123 0-2.033.895-2.033 2zm0-7.334c0 1.105.91 2 2.033 2h10.164c1.123 0 2.033-.895 2.033-2s-.91-2-2.033-2H8.142c-1.123 0-2.033.895-2.033 2zM8.141.702c-1.122 0-2.032.895-2.032 2s.91 2 2.032 2h10.162c1.122 0 2.032-.895 2.032-2s-.91-2-2.032-2H8.14z"/><ellipse class="fill" cx="2.05" cy="2.66" rx="2.05" ry="2.017"/><ellipse class="fill" cx="2.05" cy="9.993" rx="2.05" ry="2.017"/><ellipse class="fill" cx="2.05" cy="17.327" rx="2.05" ry="2.017"/></g></svg>