<svg width="24" height="26" viewBox="0 0 24 26" xmlns="http://www.w3.org/2000/svg"><path class="fill-stroke" d="M12.33 21.797c-2.654 0-5.01-.292-7.203-.893a2.046 2.046 0 0 1-1.377-1.238 1.935 1.935 0 0 1 .22-1.8l.4-.584a8.011 8.011 0 0 0 1.417-4.549c0-3.579 2.935-6.49 6.543-6.49 3.593 0 6.516 2.911 6.516 6.491a8.03 8.03 0 0 0 1.405 4.545l.404.59c.367.537.445 1.193.216 1.799a2.022 2.022 0 0 1-1.375 1.238c-2.185.6-4.528.89-7.166.89zm0-14.14c-2.81 0-5.096 2.277-5.096 5.077a9.395 9.395 0 0 1-1.66 5.336l-.402.584a.555.555 0 0 0-.064.522.6.6 0 0 0 .41.367c2.064.565 4.293.84 6.812.84 2.503 0 4.718-.275 6.773-.84a.598.598 0 0 0 .41-.367.561.561 0 0 0-.064-.524l-.403-.59a9.404 9.404 0 0 1-1.648-5.317c0-2.81-2.274-5.089-5.068-5.089zm0-1c-1.597 0-2.896-1.27-2.896-2.829 0-1.56 1.3-2.828 2.896-2.828 1.597 0 2.896 1.268 2.896 2.828 0 1.56-1.299 2.828-2.896 2.828zm0-4.243c-.798 0-1.448.634-1.448 1.414 0 .78.65 1.414 1.448 1.414.799 0 1.448-.634 1.448-1.414 0-.78-.65-1.414-1.448-1.414zm0 23.21a2.187 2.187 0 0 1-1.873-1.058.698.698 0 0 1 .262-.966.734.734 0 0 1 .99.255c.264.445.977.445 1.242 0a.733.733 0 0 1 .99-.255.696.696 0 0 1 .261.966 2.184 2.184 0 0 1-1.872 1.059z" fill="none"/></svg>