<svg width="24" height="26" viewBox="0 0 24 26" xmlns="http://www.w3.org/2000/svg"><path class="fill" d="M11.75 21.86a1.875 1.875 0 1 1-3.75 0 1.875 1.875 0 0 1 3.75 0zm4.375-1.876a1.875 1.875 0 1 0 0 3.75 1.875 1.875 0 0 0 0-3.75zM21.106 6.39a1.25 1.25 0 0 0-1.7.485l-2.772 4.984H10.11L7.297 4.534a1.25 1.25 0 0 0-1.172-.8H4.25a1.25 1.25 0 1 0 0 2.5h1.016l2.812 7.325a1.25 1.25 0 0 0 1.172.8h7.187a.937.937 0 0 1 0 1.875H7.375a1.25 1.25 0 0 0 0 2.5h9.062a3.437 3.437 0 0 0 2.475-5.819l2.682-4.825a1.25 1.25 0 0 0-.488-1.7zM14.25 3.734H13a.625.625 0 0 0-.625.625v2.5h-.969a.425.425 0 0 0-.312.697l2.187 2.606a.484.484 0 0 0 .744 0l2.187-2.606a.425.425 0 0 0-.312-.697h-1.025v-2.5a.625.625 0 0 0-.625-.625z" fill="none"/></svg>