<svg width="22" height="22" viewBox="0 0 22 22" xmlns="http://www.w3.org/2000/svg"><title>Shape</title><path d="M9.038 1.156H1.851a.694.694 0 0 0-.695.695v7.187c0 .384.311.695.695.695h7.187a.695.695 0 0 0 .695-.695V1.851a.695.695 0 0 0-.695-.695zm-.694 7.188H2.545V2.545h5.799v5.799zm11.805-7.188h-7.187a.694.694 0 0 0-.694.695v7.187c0 .384.31.695.694.695h7.187a.695.695 0 0 0 .695-.695V1.851a.695.695 0 0 0-.695-.695zm-.694 7.188h-5.799V2.545h5.799v5.799zM9.038 12.268H1.851a.694.694 0 0 0-.695.694v7.187c0 .384.311.695.695.695h7.187c.384 0 .695-.31.695-.695v-7.187a.695.695 0 0 0-.695-.694zm-.694 7.187H2.545v-5.799h5.799v5.799zm11.805-7.187h-7.187a.694.694 0 0 0-.694.694v7.187c0 .384.31.695.694.695h7.187c.384 0 .695-.31.695-.695v-7.187a.695.695 0 0 0-.695-.694zm-.694 7.187h-5.799v-5.799h5.799v5.799z" stroke="#007BFF" fill="#007BFF" fill-rule="evenodd"/></svg>