<svg width="24" height="26" viewBox="0 0 24 26" xmlns="http://www.w3.org/2000/svg"><path class="fill-stroke" d="M10.01 3.002a1.44 1.44 0 0 0-.293.027c-.423.084-.734.36-.938.654l-.001.001-2.791 4.079h-2.13a.476.476 0 0 0 0 .952h16.196c.528 0 .946.418.946.946v.959a.476.476 0 0 0 .952 0v-.96a1.906 1.906 0 0 0-1.898-1.897h-.959a1.913 1.913 0 0 0-1.904-1.905h-.715a.476.476 0 0 0 0 .952h.715c.525 0 .952.427.952.953h-1.736l-5.532-4.46a1.434 1.434 0 0 0-.863-.301zm.09.954c.06.013.117.043.184.095l4.604 3.712H7.141l2.42-3.54h.002v-.001c.105-.15.225-.237.34-.26a.475.475 0 0 1 .197-.006zM2.898 5.858A1.906 1.906 0 0 0 1 7.756v13.34C1 22.14 1.86 23 2.905 23h17.142c1.045 0 1.904-.86 1.904-1.905v-.952a.476.476 0 0 0-.952 0v.952a.953.953 0 0 1-.952.953H2.905a.953.953 0 0 1-.953-.953V7.756c0-.528.418-.946.946-.946h2.388a.476.476 0 0 0 .006-.952H2.898zm13.34 6.19a3.335 3.335 0 0 0-2.887 5 3.335 3.335 0 0 0 2.886 1.666h5.721a1.906 1.906 0 0 0 1.898-1.898v-2.87a1.91 1.91 0 0 0-1.905-1.898h-5.714zm0 .952h5.713c.528 0 .953.421.953.946v2.87a.939.939 0 0 1-.946.946h-5.72a2.379 2.379 0 0 1-2.062-3.571A2.379 2.379 0 0 1 16.237 13zm0 .953c-.784 0-1.43.645-1.43 1.428 0 .784.646 1.429 1.43 1.429.783 0 1.428-.645 1.428-1.429 0-.783-.645-1.428-1.429-1.428zm0 .952a.47.47 0 0 1 .476.476.47.47 0 0 1-.477.476.47.47 0 0 1-.476-.476.47.47 0 0 1 .476-.476z" fill="none"/></svg>